<?xml version="1.0" standalone="no"?>
<!DOCTYPE svg PUBLIC "-//W3C//DTD SVG 20010904//EN"
 "http://www.w3.org/TR/2001/REC-SVG-20010904/DTD/svg10.dtd">
<svg version="1.0" xmlns="http://www.w3.org/2000/svg"
 width="742.000000pt" height="592.000000pt" viewBox="0 0 742.000000 592.000000"
 preserveAspectRatio="xMidYMid meet">

<g transform="translate(0.000000,592.000000) scale(0.100000,-0.100000)"
fill="#000000" stroke="none">
<path d="M0 2960 l0 -2960 3710 0 3710 0 0 2960 0 2960 -3710 0 -3710 0 0
-2960z m2850 1760 l0 -50 -44 0 c-39 0 -45 -3 -48 -22 -2 -19 -9 -23 -38 -23
-33 0 -35 2 -38 38 -3 36 -3 37 32 37 33 0 36 3 36 28 0 38 6 42 57 42 l43 0
0 -50z m1080 21 c115 -29 179 -54 280 -107 263 -140 461 -391 537 -683 35
-134 43 -339 18 -466 -25 -125 -72 -254 -105 -283 -13 -12 -13 -13 0 -7 8 4 6
-1 -5 -10 -11 -9 -20 -19 -21 -23 0 -4 -6 -18 -13 -32 l-11 -25 3 28 c5 30
-10 47 -19 23 -9 -23 -27 -19 -21 4 3 11 1 23 -4 26 -5 3 -9 0 -9 -5 0 -16
-26 -13 -44 4 -8 8 -26 15 -40 15 -15 0 -34 4 -44 9 -66 35 -104 50 -117 45
-8 -4 -17 1 -21 10 -3 9 -16 16 -28 16 -11 1 -32 7 -46 15 -14 8 -35 14 -47
15 -32 0 -93 31 -93 47 0 8 5 11 12 7 7 -4 8 -3 4 4 -9 15 -56 16 -56 2 0 -18
-29 -11 -40 10 -6 11 -15 18 -20 15 -15 -9 -40 7 -40 26 0 10 -4 19 -8 19 -5
0 -8 -10 -8 -21 1 -12 -6 -24 -14 -26 -13 -4 -13 -3 0 6 11 8 12 11 2 11 -7 0
-11 4 -8 8 11 18 -15 37 -51 38 -113 2 -137 5 -124 13 20 13 1 20 -68 27 -34
4 -61 11 -61 15 0 5 8 9 17 9 14 0 15 2 4 13 -11 10 -14 10 -18 0 -7 -21 -34
-15 -59 12 -20 21 -23 22 -27 7 -3 -9 -4 0 -3 20 l1 38 292 0 291 0 -5 -50
c-6 -59 7 -80 45 -75 15 1 80 3 145 4 l117 1 0 150 0 150 -150 0 -150 0 0 -60
0 -60 -329 0 -329 0 3 -35 c1 -28 -2 -35 -16 -35 -10 0 -21 5 -24 11 -4 6 -13
8 -21 5 -17 -7 -19 10 -1 18 6 3 -1 3 -18 0 -36 -7 -33 -7 -72 -5 l-33 1 0
200 0 200 165 0 165 0 0 -60 0 -60 150 0 150 0 0 150 c0 83 -3 150 -7 150 -5
1 -71 2 -148 3 l-140 2 -3 -63 -3 -63 -122 3 -122 3 -3 163 -3 162 220 0 220
0 3 -62 3 -63 148 -3 147 -3 0 156 0 156 -147 -3 -148 -3 -3 -62 -3 -63 -239
0 -240 0 -1 -32 c0 -18 -2 -44 -3 -58 -1 -14 -3 -85 -4 -157 l-2 -133 -149 0
-150 0 -3 28 c-2 21 -9 28 -30 30 -27 3 -28 1 -28 -37 l0 -41 -50 0 -50 0 0
45 c0 43 1 45 30 45 29 0 30 1 30 50 0 49 -1 50 -30 50 -25 0 -30 4 -30 24 0
47 -10 56 -56 56 l-44 0 0 45 0 45 49 0 c44 0 50 -3 53 -22 3 -20 10 -23 61
-26 l57 -3 0 -55 c0 -47 3 -55 18 -52 14 3 17 14 17 68 l0 65 -37 3 -38 3 0
64 0 64 38 3 c29 2 37 7 37 23 0 17 -8 20 -47 23 l-48 3 0 -40 0 -41 -50 0
-50 0 0 44 0 45 43 3 42 3 3 57 3 57 52 3 c46 3 52 6 55 27 l4 23 426 -5 c395
-4 433 -6 512 -26z m-1200 -226 c0 -34 -1 -35 -40 -35 -39 0 -40 1 -40 35 0
34 1 35 40 35 39 0 40 -1 40 -35z m30 -290 c0 -33 -2 -35 -35 -35 -33 0 -35 2
-35 35 0 33 2 35 35 35 33 0 35 -2 35 -35z m438 -352 c-3 -87 -8 -166 -13
-175 -7 -19 -31 -24 -37 -10 -1 5 -28 15 -58 24 -36 10 -55 20 -54 30 1 8 -4
15 -11 15 -10 0 -10 -7 -3 -29 14 -41 4 -45 -15 -6 -11 23 -13 36 -5 45 7 9 7
13 -1 13 -7 0 -9 4 -6 10 14 22 -14 46 -56 49 -24 1 -44 3 -45 4 -1 1 -4 25
-7 54 l-6 52 52 3 c48 3 52 5 55 31 3 22 8 27 32 27 16 0 32 5 35 10 3 6 38
10 77 10 l70 0 -4 -157z m-430 85 c-3 -32 -7 -34 -48 -29 -5 0 -10 15 -10 31
0 27 3 30 31 30 28 0 30 -2 27 -32z m52 -113 c0 -5 5 -3 10 5 8 13 10 13 10
-2 0 -10 -9 -22 -21 -28 -17 -10 -20 -9 -17 7 2 14 -3 17 -22 15 -19 -1 -21 0
-11 7 19 12 51 10 51 -4z m-25 -30 c0 -14 -3 -25 -7 -25 -5 0 -8 7 -8 15 0 8
-6 15 -12 16 -7 0 -4 4 7 9 11 5 20 9 20 9 0 1 0 -10 0 -24z m120 -95 c-3 -5
-12 -10 -18 -10 -7 0 -6 4 3 10 19 12 23 12 15 0z m93 -35 c-3 -3 -9 2 -12 12
-6 14 -5 15 5 6 7 -7 10 -15 7 -18z m-754 -1525 l36 -40 0 -138 0 -138 -38
-37 -38 -38 -130 3 -129 3 -1 213 -1 212 133 0 132 0 36 -40z m484 -168 c24
-114 43 -210 42 -214 0 -5 -22 -8 -49 -8 l-48 0 -9 43 -9 42 -70 0 -69 0 -9
-42 -8 -43 -50 0 c-27 0 -49 4 -49 8 0 11 79 393 85 410 3 8 33 12 102 12 l98
0 43 -208z m440 171 l-3 -38 -52 -3 -53 -3 -2 -172 -3 -172 -47 -3 -48 -3 -2
173 -3 173 -52 3 -53 3 0 40 0 39 161 0 160 0 -3 -37z m399 -168 c23 -110 42
-206 43 -212 0 -9 -16 -13 -49 -13 l-50 0 -8 43 -9 42 -69 0 -70 0 -9 -42 -9
-43 -48 0 c-32 0 -49 4 -49 13 0 6 18 103 42 215 l42 203 100 -3 100 -3 43
-200z m683 201 c0 -3 20 -98 45 -213 25 -114 45 -209 45 -211 0 -2 -23 -2 -52
0 -49 3 -53 5 -59 34 -10 49 -16 54 -79 54 -63 0 -69 -5 -79 -54 -6 -29 -9
-31 -59 -34 -50 -3 -52 -2 -47 20 10 46 85 400 85 404 0 2 45 4 100 4 55 0
100 -2 100 -4z m312 -163 l3 -168 73 -3 72 -3 0 171 0 170 50 0 50 0 0 -173 0
-173 -36 -42 -36 -42 -103 0 -103 0 -31 39 -31 39 0 176 0 176 45 0 45 0 2
-167z m678 122 l0 -44 -92 -3 -93 -3 -3 -122 -3 -123 96 0 95 0 0 -45 0 -45
-107 0 -107 0 -38 37 -38 37 0 140 0 140 37 38 37 38 108 0 108 0 0 -45z
m-1410 -340 l0 -45 -45 0 -45 0 0 45 0 45 45 0 45 0 0 -45z"/>
<path d="M2055 2107 c-3 -7 -4 -67 -3 -133 l3 -119 68 -3 68 -3 -3 133 -3 133
-63 3 c-45 2 -64 -1 -67 -11z"/>
<path d="M2570 2116 c0 -2 -7 -40 -15 -83 -21 -109 -23 -103 41 -103 l56 0 -7
48 c-17 120 -25 142 -51 142 -13 0 -24 -2 -24 -4z"/>
<path d="M3402 2073 c-6 -27 -13 -69 -17 -95 l-7 -48 56 0 c31 0 56 3 56 6 0
3 -7 46 -16 95 -15 81 -19 89 -39 89 -20 0 -25 -8 -33 -47z"/>
<path d="M4135 2108 c-10 -30 -31 -168 -27 -173 8 -8 100 -6 105 3 2 4 -3 45
-12 92 -14 75 -19 85 -39 88 -12 2 -24 -3 -27 -10z"/>
</g>
</svg>
